<mxfile host="app.diagrams.net" modified="2022-08-21T01:36:47.761Z" agent="5.0 (Windows NT 10.0; Win64; x64) AppleWebKit/537.36 (KHTML, like Gecko) Chrome/104.0.0.0 Safari/537.36" etag="_Tj7A4FKlFmRqP7bs7sa" version="20.2.3" type="github">
  <diagram id="R2lEEEUBdFMjLlhIrx00" name="Page-1">
    <mxGraphModel dx="2192" dy="557" grid="1" gridSize="10" guides="1" tooltips="1" connect="1" arrows="1" fold="1" page="1" pageScale="1" pageWidth="850" pageHeight="1100" math="0" shadow="0" extFonts="Permanent Marker^https://fonts.googleapis.com/css?family=Permanent+Marker">
      <root>
        <mxCell id="0" />
        <mxCell id="1" parent="0" />
        <mxCell id="hoGQhK3R850PySRwXlUN-2" value="&lt;font style=&quot;font-size: 24px;&quot;&gt;Usuario&lt;/font&gt;" style="whiteSpace=wrap;html=1;aspect=fixed;" vertex="1" parent="1">
          <mxGeometry x="100" y="90" width="140" height="140" as="geometry" />
        </mxCell>
        <mxCell id="hoGQhK3R850PySRwXlUN-3" value="Vende" style="rhombus;whiteSpace=wrap;html=1;fontSize=24;" vertex="1" parent="1">
          <mxGeometry x="340" y="180" width="110" height="100" as="geometry" />
        </mxCell>
        <mxCell id="hoGQhK3R850PySRwXlUN-4" value="Compra" style="rhombus;whiteSpace=wrap;html=1;fontSize=24;" vertex="1" parent="1">
          <mxGeometry x="335" y="50" width="120" height="110" as="geometry" />
        </mxCell>
        <mxCell id="hoGQhK3R850PySRwXlUN-5" value="Productos" style="rounded=0;whiteSpace=wrap;html=1;fontSize=24;" vertex="1" parent="1">
          <mxGeometry x="560" y="45" width="175" height="120" as="geometry" />
        </mxCell>
        <mxCell id="hoGQhK3R850PySRwXlUN-6" value="Categorias" style="rounded=0;whiteSpace=wrap;html=1;fontSize=24;" vertex="1" parent="1">
          <mxGeometry x="572.5" y="400" width="150" height="80" as="geometry" />
        </mxCell>
        <mxCell id="hoGQhK3R850PySRwXlUN-7" value="Corresponde" style="rhombus;whiteSpace=wrap;html=1;fontSize=24;" vertex="1" parent="1">
          <mxGeometry x="540" y="240" width="215" height="80" as="geometry" />
        </mxCell>
        <mxCell id="hoGQhK3R850PySRwXlUN-9" value="" style="endArrow=none;html=1;rounded=0;fontSize=24;exitX=0;exitY=0.5;exitDx=0;exitDy=0;" edge="1" parent="1" source="hoGQhK3R850PySRwXlUN-4">
          <mxGeometry width="50" height="50" relative="1" as="geometry">
            <mxPoint x="230" y="150" as="sourcePoint" />
            <mxPoint x="240" y="105" as="targetPoint" />
          </mxGeometry>
        </mxCell>
        <mxCell id="hoGQhK3R850PySRwXlUN-12" value="" style="endArrow=none;html=1;rounded=0;fontSize=24;entryX=0;entryY=0.5;entryDx=0;entryDy=0;exitX=1;exitY=1;exitDx=0;exitDy=0;" edge="1" parent="1" source="hoGQhK3R850PySRwXlUN-2" target="hoGQhK3R850PySRwXlUN-3">
          <mxGeometry width="50" height="50" relative="1" as="geometry">
            <mxPoint x="300" y="290" as="sourcePoint" />
            <mxPoint x="300" y="230" as="targetPoint" />
          </mxGeometry>
        </mxCell>
        <mxCell id="hoGQhK3R850PySRwXlUN-13" value="" style="endArrow=none;html=1;rounded=0;fontSize=24;entryX=0;entryY=1;entryDx=0;entryDy=0;exitX=1;exitY=0.5;exitDx=0;exitDy=0;" edge="1" parent="1" source="hoGQhK3R850PySRwXlUN-3" target="hoGQhK3R850PySRwXlUN-5">
          <mxGeometry width="50" height="50" relative="1" as="geometry">
            <mxPoint x="530" y="310" as="sourcePoint" />
            <mxPoint x="580" y="260" as="targetPoint" />
          </mxGeometry>
        </mxCell>
        <mxCell id="hoGQhK3R850PySRwXlUN-14" value="" style="endArrow=none;html=1;rounded=0;fontSize=24;exitX=1;exitY=0.5;exitDx=0;exitDy=0;entryX=0;entryY=0.5;entryDx=0;entryDy=0;" edge="1" parent="1" source="hoGQhK3R850PySRwXlUN-4" target="hoGQhK3R850PySRwXlUN-5">
          <mxGeometry width="50" height="50" relative="1" as="geometry">
            <mxPoint x="530" y="310" as="sourcePoint" />
            <mxPoint x="580" y="260" as="targetPoint" />
          </mxGeometry>
        </mxCell>
        <mxCell id="hoGQhK3R850PySRwXlUN-15" value="" style="endArrow=none;html=1;rounded=0;fontSize=24;entryX=0.5;entryY=1;entryDx=0;entryDy=0;exitX=0.5;exitY=0;exitDx=0;exitDy=0;" edge="1" parent="1" source="hoGQhK3R850PySRwXlUN-7" target="hoGQhK3R850PySRwXlUN-5">
          <mxGeometry width="50" height="50" relative="1" as="geometry">
            <mxPoint x="530" y="310" as="sourcePoint" />
            <mxPoint x="580" y="260" as="targetPoint" />
          </mxGeometry>
        </mxCell>
        <mxCell id="hoGQhK3R850PySRwXlUN-16" value="" style="endArrow=none;html=1;rounded=0;fontSize=24;exitX=0.5;exitY=0;exitDx=0;exitDy=0;entryX=0.5;entryY=1;entryDx=0;entryDy=0;" edge="1" parent="1" source="hoGQhK3R850PySRwXlUN-6" target="hoGQhK3R850PySRwXlUN-7">
          <mxGeometry width="50" height="50" relative="1" as="geometry">
            <mxPoint x="530" y="310" as="sourcePoint" />
            <mxPoint x="580" y="260" as="targetPoint" />
          </mxGeometry>
        </mxCell>
        <mxCell id="hoGQhK3R850PySRwXlUN-17" value="n" style="text;html=1;align=center;verticalAlign=middle;resizable=0;points=[];autosize=1;strokeColor=none;fillColor=none;fontSize=24;" vertex="1" parent="1">
          <mxGeometry x="270" y="70" width="40" height="40" as="geometry" />
        </mxCell>
        <mxCell id="hoGQhK3R850PySRwXlUN-18" value="n" style="text;html=1;align=center;verticalAlign=middle;resizable=0;points=[];autosize=1;strokeColor=none;fillColor=none;fontSize=24;" vertex="1" parent="1">
          <mxGeometry x="300" y="190" width="40" height="40" as="geometry" />
        </mxCell>
        <mxCell id="hoGQhK3R850PySRwXlUN-19" value="n" style="text;html=1;align=center;verticalAlign=middle;resizable=0;points=[];autosize=1;strokeColor=none;fillColor=none;fontSize=24;" vertex="1" parent="1">
          <mxGeometry x="480" y="70" width="40" height="40" as="geometry" />
        </mxCell>
        <mxCell id="hoGQhK3R850PySRwXlUN-20" value="n" style="text;html=1;align=center;verticalAlign=middle;resizable=0;points=[];autosize=1;strokeColor=none;fillColor=none;fontSize=24;" vertex="1" parent="1">
          <mxGeometry x="460" y="170" width="40" height="40" as="geometry" />
        </mxCell>
        <mxCell id="hoGQhK3R850PySRwXlUN-21" value="n" style="text;html=1;align=center;verticalAlign=middle;resizable=0;points=[];autosize=1;strokeColor=none;fillColor=none;fontSize=24;" vertex="1" parent="1">
          <mxGeometry x="710" y="190" width="40" height="40" as="geometry" />
        </mxCell>
        <mxCell id="hoGQhK3R850PySRwXlUN-22" value="1" style="text;html=1;align=center;verticalAlign=middle;resizable=0;points=[];autosize=1;strokeColor=none;fillColor=none;fontSize=24;" vertex="1" parent="1">
          <mxGeometry x="710" y="340" width="40" height="40" as="geometry" />
        </mxCell>
        <mxCell id="hoGQhK3R850PySRwXlUN-24" value="Email" style="text;html=1;align=center;verticalAlign=middle;resizable=0;points=[];autosize=1;strokeColor=none;fillColor=none;fontSize=24;" vertex="1" parent="1">
          <mxGeometry y="140" width="80" height="40" as="geometry" />
        </mxCell>
        <mxCell id="hoGQhK3R850PySRwXlUN-27" value="ContraseÃ±a" style="text;html=1;align=center;verticalAlign=middle;resizable=0;points=[];autosize=1;strokeColor=none;fillColor=none;fontSize=24;" vertex="1" parent="1">
          <mxGeometry x="-50" y="180" width="150" height="40" as="geometry" />
        </mxCell>
        <mxCell id="hoGQhK3R850PySRwXlUN-28" value="" style="endArrow=none;html=1;rounded=0;fontSize=24;" edge="1" parent="1">
          <mxGeometry width="50" height="50" relative="1" as="geometry">
            <mxPoint x="60" y="120" as="sourcePoint" />
            <mxPoint x="100" y="120" as="targetPoint" />
          </mxGeometry>
        </mxCell>
        <mxCell id="hoGQhK3R850PySRwXlUN-29" value="&lt;u&gt;&lt;b&gt;ID&lt;/b&gt;&lt;/u&gt;" style="text;html=1;align=center;verticalAlign=middle;resizable=0;points=[];autosize=1;strokeColor=none;fillColor=none;fontSize=24;" vertex="1" parent="1">
          <mxGeometry x="15" y="100" width="50" height="40" as="geometry" />
        </mxCell>
      </root>
    </mxGraphModel>
  </diagram>
</mxfile>
